<svg width="707.1" height="200" xmlns="http://www.w3.org/2000/svg">

 <g>
  <title>background</title>
  <rect fill="none" id="canvas_background" height="402" width="582" y="-1" x="-1"/>
 </g>
 <g>
  <title>Layer 1</title>
  <polygon id="svg_1" points="0,150 0,50 86.6,0 173.2,50 173.2,150 86.6,200 " fill="#61DAFB"/>
  <polygon id="svg_2" points="86.6,133.3 57.7,116.7 57.7,83.3 86.6,66.7 115.5,83.3 144.3,66.7 86.6,33.3 28.9,66.7 28.9,133.3   86.6,166.7 144.3,133.3 115.5,116.7 " fill="#FFFFFF"/>
  <polygon id="svg_3" points="0,50 86.6,100 86.6,0 " stroke-miterlimit="10" stroke="#FFFFFF" opacity="0.04"/>
  <polygon id="svg_4" points="0,150 86.6,200 86.6,100 " stroke-miterlimit="10" stroke="#FFFFFF" opacity="0.04"/>
  <polygon id="svg_5" points="86.6,100 173.2,150 173.2,50   " stroke-miterlimit="10" stroke="#FFFFFF" opacity="0.08"/>
  <polygon id="svg_6" points="86.6,100 0,50 0,150 " fill-opacity="0"/>
  <polygon id="svg_7" points="173.2,150 86.6,100 86.6,200   " stroke-miterlimit="10" stroke="#FFFFFF" opacity="0.08"/>
  <polygon id="svg_8" points="173.2,50 86.6,0 86.6,100 " stroke-miterlimit="10" stroke="#FFFFFF" opacity="0.08"/>
  <g id="svg_9">
   <polyline stroke-linecap="round" id="svg_17" points="265.0500030517578,83.453125 265.0500030517578,84.453125 265.0500030517578,85.453125 265.0500030517578,86.453125 265.0500030517578,87.453125 265.0500030517578,88.453125 265.0500030517578,90.453125 265.0500030517578,93.453125 265.0500030517578,94.453125 266.0500030517578,96.453125 266.0500030517578,98.453125 266.0500030517578,100.453125 266.0500030517578,101.453125 " opacity="0.5" fill-opacity="null" stroke-opacity="null" stroke-width="null" stroke="null" fill="none"/>
   <text font-weight="bold" xml:space="preserve" text-anchor="start" font-family="Euphoria, sans-serif" font-size="120" id="svg_20" y="142" x="217.898441" stroke-width="0" stroke="null" fill="#000000">VENS</text>
   <text font-weight="bold" xml:space="preserve" text-anchor="start" font-family="Euphoria, sans-serif" font-size="120" id="svg_21" y="142" x="545.050003" stroke-width="0" stroke="null" fill="#1d9bc6">IL</text>
  </g>
 </g>
</svg>